<svg xmlns="http://www.w3.org/2000/svg" viewBox="0 0 511.563 532.448"><path fill="#2f2e41" d="m454.491 405.208-.01.24 12.01 127h-87.64l-11.36-78-5 76-90-1 9.56-99.78 8.13-46.25v-.01l1.22-6.96h160.7l.21 2.52 2.18 26.24z"/><path d="M222.883 478.83c9.282 1.692 18.96-8.761 21.617-23.347 1.164-6.385.788-12.503-.78-17.506l1.423-8.408 23.884-113.11s43.98-87.975 43.979-103.248c-.001-15.273-12.722-22.763-12.722-22.763l-17.215.161-53.982 131.847-9.722 97.43-1.573 13.367c-3.232 4.129-5.74 9.721-6.904 16.106-2.657 14.586 2.713 27.78 11.995 29.472ZM397.991 135.948l-16-37-52 9-3.5 43.532 71.5-15.532z" fill="#ffb6b6"/><path opacity=".1" d="m397.991 135.948-16-37-52 9-3.5 43.532 71.5-15.532z"/><path d="M510.991 212.948s-37-69-44-76c-3.116-3.116-8.014-3.16-12.493-2.25l-51.507-17.75-17.458-9.809-1.15 18.662-57.316 10.288c.319-11.381 1.924-15.71 1.924-15.71l-21 24.57-41 20 .023.18c-3.01 1.05-5.862 2.847-8.023 5.82-8 11-30 145-30 145l47 10 6.397-40.14 4.603 36.14 3.5 67.5s64 55 95 35 69-19 69-19l.948-31.289a100.466 100.466 0 0 0 1.052-1.712l-1-110.984v-29.532c7.618 10.614 16.812 19.741 27.5 24.016 35 14 28-43 28-43Z" fill="#e6e6e6"/><circle cx="350.556" cy="66.62" r="47.838" fill="#ffb6b6"/><path d="M384.875 80.14s4.16-14.56 13.52-13.52c9.359 1.04 11.439-7.28 9.359-11.44-2.08-4.16-6.24-24.959-6.24-24.959s2.08-14.56-10.4-16.64c-12.479-2.08-16.639-4.16-18.719-8.32-2.08-4.159-33.279-8.319-43.678-2.08-10.4 6.24-18.72 18.213-26 21.586-7.28 3.374-13.52 9.614-9.36 20.014 4.16 10.4 10.194 30.739 10.194 30.739s10.606-3.7 12.686 2.54-6.24-2.08 4.16-18.72 10.4-33.279 27.039-27.039c16.64 6.24 35.359 4.16 33.279 16.64-2.08 12.48 4.16 31.198 4.16 31.198Z" fill="#2f2e41"/><path d="M381.95 459.384H18.632C8.36 459.384 0 451.024 0 440.751V247.758c0-10.274 8.359-18.633 18.633-18.633H381.95c10.275 0 18.634 8.36 18.634 18.633v192.993c0 10.274-8.359 18.633-18.634 18.633Z" fill="#fff"/><path d="M381.95 459.384H18.632C8.36 459.384 0 451.024 0 440.751V247.758c0-10.274 8.359-18.633 18.633-18.633H381.95c10.275 0 18.634 8.36 18.634 18.633v192.993c0 10.274-8.359 18.633-18.634 18.633ZM18.632 232.236c-8.558 0-15.521 6.964-15.521 15.522v192.993c0 8.558 6.963 15.522 15.521 15.522H381.95c8.559 0 15.522-6.964 15.522-15.522V247.758c0-8.558-6.963-15.522-15.522-15.522H18.633Z" fill="#3f3d56"/><circle cx="353.908" cy="247.794" r="4.667" fill="#3f3d56"/><circle cx="366.355" cy="247.794" r="4.667" fill="#3f3d56"/><circle cx="378.801" cy="247.794" r="4.667" fill="#3f3d56"/><path d="M26.449 323.251a2.336 2.336 0 0 0-2.334 2.334c0 .627.242 1.208.682 1.636a2.28 2.28 0 0 0 1.652.698h349.24a2.336 2.336 0 0 0 2.334-2.334c0-.628-.242-1.208-.682-1.637a2.28 2.28 0 0 0-1.651-.697H26.449Z" fill="#e6e6e6"/><path d="M332.127 322.473v6.223H26.45a3.042 3.042 0 0 1-2.194-.918 3.042 3.042 0 0 1-.918-2.193 3.12 3.12 0 0 1 3.112-3.112h305.678Z" fill="#6c63ff"/><path d="M371.8 310.805h-31.116c-3.431 0-6.223-2.791-6.223-6.224s2.792-6.223 6.223-6.223H371.8c3.432 0 6.223 2.791 6.223 6.223s-2.791 6.224-6.223 6.224ZM167.99 278.133H28.782c-3.431 0-6.223-2.791-6.223-6.224s2.792-6.223 6.223-6.223H167.99c3.431 0 6.223 2.791 6.223 6.223s-2.792 6.224-6.223 6.224ZM26.449 393.262a2.336 2.336 0 0 0-2.334 2.334c0 .628.242 1.208.682 1.636a2.28 2.28 0 0 0 1.652.698h349.24a2.336 2.336 0 0 0 2.334-2.334c0-.627-.242-1.208-.682-1.636a2.28 2.28 0 0 0-1.651-.698H26.449Z" fill="#e6e6e6"/><path d="M212.33 392.485v6.223H26.449a3.042 3.042 0 0 1-2.194-.918 3.042 3.042 0 0 1-.918-2.194 3.12 3.12 0 0 1 3.112-3.111H212.33Z" fill="#6c63ff"/><path d="M371.8 380.816h-31.116c-3.431 0-6.223-2.791-6.223-6.223s2.792-6.224 6.223-6.224H371.8c3.432 0 6.223 2.792 6.223 6.224s-2.791 6.223-6.223 6.223Z" fill="#e6e6e6"/><g><ellipse cx="426.274" cy="70.441" rx="48.726" ry="47.7" fill="#6c63ff"/><path d="m442.811 46.38-19.46 35.437c-4.135-7.305-8.247-14.622-12.392-21.922-1.43-2.52-5.324-.253-3.89 2.274 4.805 8.461 9.56 16.951 14.364 25.413.822 1.446 3.077 1.48 3.89 0l21.378-38.928c1.397-2.542-2.492-4.818-3.89-2.273Z" fill="#fff"/></g><path d="m493.538 196.172-48.547-23.224s-1.95-15.543-11.054-21.087c-1.548-3.693-3.329-7.75-4.946-10.964-4-7.949 2-22.949-3-22.949s-12.391 15.776-12 20c.3 3.243 2.98 8.905 3.534 13.861-6.097 2.3-11.015 6.241-14.25 9.38-2.798 2.715-3.838 6.767-2.744 10.51 3.17 10.847 11.091 33.25 22.46 33.25 15 0 19-3 19-3s31 39 54 42-2.453-47.777-2.453-47.777Z" fill="#ffb6b6"/></svg>